<svg width="131" height="40" viewBox="0 0 131 40" fill="none" xmlns="http://www.w3.org/2000/svg">
<path d="M37.7663 28.3497C37.5624 27.8622 37.3713 27.3497 37.1673 26.9122L36.2242 24.8247L36.186 24.7872C33.382 18.7872 30.3869 12.6872 27.2134 6.68719L27.086 6.43719C26.7673 5.84969 26.4487 5.19969 26.1173 4.59969C25.7095 3.88719 25.3144 3.12469 24.6644 2.39969C24.0308 1.6411 23.2334 1.02992 22.3298 0.610255C21.4261 0.190588 20.4387 -0.0270996 19.4389 -0.0270996C18.4391 -0.0270996 17.4517 0.190588 16.548 0.610255C15.6444 1.02992 14.847 1.6411 14.2134 2.39969C13.6144 3.12469 13.1683 3.88719 12.7605 4.59969C12.4418 5.24969 12.1232 5.88719 11.7918 6.47469L11.6644 6.72469C8.54184 12.7247 5.49576 18.8247 2.69184 24.8247L2.61536 24.8997C2.33497 25.5497 2.0036 26.2247 1.68497 26.9497C1.48105 27.3872 1.27713 27.8622 1.07321 28.3872C0.522661 29.7619 0.346854 31.2536 0.563113 32.7153C0.779373 34.177 1.38023 35.5581 2.30648 36.7227C3.23273 37.8873 4.45239 38.795 5.84526 39.3565C7.23813 39.918 8.75614 40.1138 10.2497 39.9247C11.6816 39.7398 13.0603 39.2721 14.3026 38.5497C15.9595 37.6372 17.5526 36.3122 19.3369 34.3997C21.1212 36.3122 22.7526 37.6372 24.3713 38.5622C25.9278 39.4582 27.6905 39.9528 29.4948 39.9997C31.5841 40.0082 33.6061 39.275 35.1873 37.9356C36.7686 36.5961 37.8023 34.7408 38.0977 32.7122C38.4391 31.2544 38.3236 29.7295 37.7663 28.3372V28.3497ZM19.4644 30.4247C17.2722 27.6747 15.8448 25.1497 15.3605 22.9872C15.1598 22.1859 15.1166 21.3544 15.233 20.5372C15.3222 19.8997 15.5644 19.3372 15.8958 18.8622C16.6605 17.7747 17.9987 17.0997 19.4644 17.0997C20.1604 17.0788 20.8509 17.2278 21.4737 17.5333C22.0966 17.8387 22.6324 18.291 23.033 18.8497C23.3644 19.3497 23.6065 19.8997 23.683 20.5372C23.8105 21.2622 23.7595 22.0997 23.5556 22.9872C23.0713 25.1122 21.6438 27.6622 19.4644 30.4247ZM35.7016 32.2747C35.5568 33.3046 35.1394 34.2794 34.4909 35.1018C33.8424 35.9242 32.9855 36.5657 32.0056 36.9622C31.0369 37.3622 29.9663 37.4747 28.9212 37.3622C27.9016 37.2372 26.882 36.9122 25.8369 36.3122C24.1017 35.2603 22.5414 33.9534 21.2105 32.4372C23.8869 29.1872 25.5056 26.2247 26.1173 23.5872C26.4105 22.3372 26.4487 21.2122 26.3213 20.1747C26.1621 19.1913 25.7882 18.2532 25.2252 17.4247C24.5823 16.5263 23.7242 15.7965 22.7264 15.2995C21.7286 14.8026 20.6215 14.5537 19.5026 14.5747C17.1448 14.5747 15.0418 15.6497 13.7673 17.4122C13.1936 18.2386 12.8228 19.1842 12.684 20.1747C12.5183 21.2247 12.5565 22.3872 12.8879 23.5872C13.4997 26.2247 15.1565 29.2247 17.7948 32.4622C16.4865 34.0074 14.9225 35.3258 13.1683 36.3622C12.1105 36.9622 11.1036 37.2747 10.084 37.3997C8.49835 37.5989 6.89663 37.1762 5.62698 36.2236C4.35733 35.2709 3.52237 33.8653 3.3036 32.3122C3.17615 31.3122 3.26536 30.3122 3.67321 29.1872C3.80066 28.7872 3.99184 28.3872 4.19576 27.9122C4.47615 27.2622 4.80752 26.5872 5.12615 25.9122L5.17713 25.8247C7.93007 19.8622 10.9379 13.7747 14.0605 7.81219L14.1879 7.56219C14.5065 6.96219 14.8252 6.32469 15.1565 5.72469C15.4879 5.08719 15.8448 4.47469 16.3036 3.97469C16.7008 3.50971 17.197 3.13578 17.7574 2.87921C18.3178 2.62264 18.9288 2.48967 19.5472 2.48967C20.1657 2.48967 20.7766 2.62264 21.337 2.87921C21.8975 3.13578 22.3937 3.50971 22.7909 3.97469C23.2369 4.47469 23.6065 5.08719 23.9379 5.72469C24.2565 6.32469 24.5752 6.97469 24.9065 7.56219L25.034 7.81219C28.1438 13.7747 31.1516 19.8622 33.9556 25.8247L33.9938 25.8622C34.3252 26.5122 34.6056 27.2372 34.9242 27.8622C35.1281 28.3497 35.332 28.7372 35.4595 29.1497C35.7016 30.2747 35.8291 31.2747 35.7016 32.2747ZM53.4428 30.1497C52.4824 30.1635 51.5312 29.965 50.6597 29.569C49.7882 29.173 49.0188 28.5896 48.4085 27.8622C47.0372 26.3121 46.3094 24.3135 46.3693 22.2622C46.3483 20.1662 47.0996 18.1332 48.485 16.5372C49.1258 15.8005 49.9235 15.2105 50.8219 14.8088C51.7203 14.4071 52.6976 14.2034 53.685 14.2122C54.614 14.1872 55.5342 14.3944 56.3592 14.8143C57.1841 15.2341 57.8866 15.8528 58.4007 16.6122L58.5281 14.6497H62.2497V29.7497H58.5154L58.3879 27.5497C57.8579 28.3605 57.1254 29.025 56.2599 29.4801C55.3944 29.9351 54.4247 30.1656 53.4428 30.1497ZM54.4114 26.5497C55.1507 26.5497 55.8007 26.3497 56.4124 25.9872C56.9732 25.5872 57.432 25.0622 57.7889 24.4247C58.1075 23.7872 58.2732 23.0247 58.2732 22.1747C58.3229 21.4364 58.1764 20.6982 57.848 20.0321C57.5196 19.366 57.0205 18.7949 56.3997 18.3747C55.8031 18.0101 55.1143 17.8169 54.4114 17.8169C53.7086 17.8169 53.0198 18.0101 52.4232 18.3747C51.8624 18.7747 51.4036 19.2997 51.0467 19.9372C50.7097 20.6402 50.5439 21.4105 50.5624 22.1872C50.5127 22.9254 50.6593 23.6637 50.9877 24.3298C51.3161 24.9959 51.8151 25.5669 52.436 25.9872C53.035 26.3497 53.685 26.5497 54.4114 26.5497ZM68.6222 10.5747C68.6222 11.0122 68.5458 11.4122 68.3418 11.7372C68.1379 12.0497 67.8575 12.3372 67.4879 12.5372C67.1183 12.7372 66.7232 12.8122 66.3154 12.8122C65.9075 12.8122 65.4997 12.7372 65.1301 12.5372C64.7805 12.3463 64.4866 12.0709 64.2762 11.7372C64.0788 11.3811 63.982 10.9798 63.9958 10.5747C63.9958 10.1247 64.085 9.72469 64.2762 9.41219C64.4801 9.03719 64.7732 8.81219 65.1301 8.61219C65.4997 8.41219 65.8948 8.32469 66.3154 8.32469C66.7211 8.31552 67.1222 8.40975 67.4797 8.59818C67.8371 8.78661 68.1386 9.06278 68.3546 9.39969C68.5401 9.76412 68.6319 10.1675 68.6222 10.5747ZM64.2889 29.6997V14.6247H68.3418V29.7247H64.2762L64.2889 29.6997ZM79.1752 18.5747V18.6247C78.984 18.5372 78.7291 18.4997 78.5379 18.4622C78.283 18.4122 78.0791 18.4122 77.8369 18.4122C76.7026 18.4122 75.8487 18.7372 75.2879 19.4122C74.6762 20.0997 74.3958 21.0622 74.3958 22.2997V29.7122H70.3301V14.6122H74.0644L74.1918 16.8997C74.5997 16.0997 75.084 15.4997 75.7722 15.0497C76.4568 14.6125 77.2627 14.3941 78.0791 14.4247C78.3722 14.4247 78.6526 14.4497 78.8948 14.4997C79.0222 14.5372 79.0987 14.5372 79.1752 14.5747V18.5747ZM80.8065 29.6997V8.42469H84.8595V16.5497C85.433 15.8247 86.083 15.2622 86.8987 14.8247C88.19 14.2037 89.657 14.0276 91.0629 14.3247C92.4688 14.6218 93.7317 15.3748 94.6477 16.4622C96.022 18.0154 96.75 20.0191 96.6869 22.0747C96.7079 24.1707 95.9566 26.2036 94.5713 27.7997C93.9304 28.5364 93.1327 29.1264 92.2343 29.5281C91.3359 29.9298 90.3586 30.1334 89.3713 30.1247C88.4422 30.1496 87.522 29.9424 86.6971 29.5226C85.8721 29.1028 85.1696 28.4841 84.6556 27.7247L84.5281 29.6872L80.8065 29.7247V29.6997ZM88.6448 26.5497C89.3713 26.5497 90.0213 26.3497 90.633 25.9872C91.1938 25.5872 91.6526 25.0622 92.0095 24.4247C92.3409 23.7872 92.4938 23.0247 92.4938 22.1747C92.4938 21.3372 92.3409 20.5747 92.0095 19.9372C91.6748 19.3225 91.2046 18.7887 90.633 18.3747C90.0365 18.0101 89.3477 17.8169 88.6448 17.8169C87.9419 17.8169 87.2531 18.0101 86.6565 18.3747C86.083 18.7747 85.6369 19.2997 85.2673 19.9372C84.9303 20.6402 84.7645 21.4105 84.783 22.1872C84.7333 22.9254 84.8799 23.6637 85.2083 24.3298C85.5367 24.9959 86.0357 25.5669 86.6565 25.9872C87.2556 26.3497 87.9056 26.5497 88.6448 26.5497ZM98.2164 29.7122V14.6122H101.951L102.078 16.5747C102.547 15.8224 103.213 15.2068 104.006 14.7914C104.799 14.3761 105.691 14.1761 106.59 14.2122C107.617 14.1948 108.627 14.4748 109.493 15.0173C110.359 15.5598 111.043 16.3406 111.459 17.2622C111.905 18.2122 112.147 19.3872 112.147 20.6997V29.7497H108.081V21.2247C108.081 20.1747 107.839 19.3497 107.355 18.7372C106.87 18.1372 106.208 17.8122 105.366 17.8122C104.755 17.8122 104.219 17.9372 103.748 18.2122C103.302 18.4997 102.932 18.8622 102.652 19.3747C102.368 19.8927 102.228 20.4744 102.244 21.0622V29.7122H98.2164ZM114.173 29.7122V8.41219H118.239V16.5372C118.79 15.8081 119.506 15.215 120.331 14.8049C121.156 14.3948 122.068 14.179 122.993 14.1747C123.953 14.1609 124.904 14.3594 125.776 14.7554C126.647 15.1514 127.417 15.7347 128.027 16.4622C129.392 18.0153 130.115 20.0129 130.054 22.0622C130.076 24.1584 129.324 26.1917 127.938 27.7872C127.297 28.5239 126.499 29.1139 125.601 29.5156C124.703 29.9173 123.725 30.1209 122.738 30.1122C121.809 30.1371 120.889 29.9299 120.064 29.5101C119.239 29.0903 118.536 28.4716 118.022 27.7122L117.908 29.6747L114.173 29.7122ZM122.05 26.5497C122.789 26.5497 123.439 26.3497 124.038 25.9872C124.611 25.5872 125.058 25.0622 125.427 24.4247C125.746 23.7872 125.911 23.0247 125.911 22.1747C125.961 21.4364 125.815 20.6982 125.486 20.0321C125.158 19.366 124.659 18.7949 124.038 18.3747C123.441 18.0101 122.753 17.8169 122.05 17.8169C121.347 17.8169 120.658 18.0101 120.061 18.3747C119.501 18.7747 119.042 19.2997 118.685 19.9372C118.329 20.634 118.162 21.4088 118.201 22.1872C118.151 22.9254 118.298 23.6637 118.626 24.3298C118.954 24.9959 119.453 25.5669 120.074 25.9872C120.673 26.3497 121.285 26.5497 122.05 26.5497Z" fill="#FF385C"/>
</svg>
