<svg width="141" height="40" viewBox="0 0 141 40" fill="none" xmlns="http://www.w3.org/2000/svg">
<g clip-path="url(#clip0)">
<path d="M15.6612 6.62122V17.9041H5.38077V6.62122H0.5V33.5546H5.38077V22.6381H15.6612V33.5546H20.542V6.62122H15.6612Z" fill="#33475B"/>
<path d="M36.1624 24.8484C36.1624 25.9278 35.737 26.963 34.9798 27.7262C34.2226 28.4895 33.1955 28.9183 32.1246 28.9183C31.0537 28.9183 30.0267 28.4895 29.2695 27.7262C28.5122 26.963 28.0868 25.9278 28.0868 24.8484V13.3124H23.4571V24.8484C23.4571 27.1632 24.3694 29.3832 25.9933 31.02C27.6172 32.6568 29.8197 33.5763 32.1163 33.5763C34.4128 33.5763 36.6153 32.6568 38.2392 31.02C39.8631 29.3832 40.7754 27.1632 40.7754 24.8484V13.3124H36.1624V24.8484Z" fill="#33475B"/>
<path d="M70.4644 14.5007C70.4644 12.1361 72.0164 11.3865 73.7167 11.3865C75.0869 11.3865 76.8972 12.4374 78.0809 13.7125L81.1132 10.1114C79.5994 8.04815 76.5289 6.62122 74.0156 6.62122C68.9937 6.62122 65.3612 9.58597 65.3612 14.5007C65.3612 23.6191 76.4189 20.7267 76.4189 25.8294C76.4189 27.4034 74.9028 28.7942 73.1667 28.7942C70.4285 28.7942 69.5413 27.4444 68.2835 26.0174L64.9188 29.5438C67.0711 32.2072 69.7255 33.5595 72.906 33.5595C77.6768 33.5595 81.5149 30.5585 81.5149 25.868C81.5149 15.7444 70.4572 18.89 70.4572 14.5007" fill="#33475B"/>
<path d="M138.871 29.2521C136.136 29.2521 135.359 28.059 135.359 26.2319V18.1451H139.61V14.0475H135.359V8.64105L130.664 10.7646V27.237C130.664 31.4503 133.548 33.5739 137.504 33.5739C138.124 33.5853 138.744 33.5352 139.354 33.4244L140.5 29.1749C139.983 29.2111 139.39 29.2473 138.871 29.2473" fill="#33475B"/>
<path d="M53.7844 13.4472C51.4911 13.4472 49.8913 14.1173 48.3441 15.6479V6.78256H43.7072V23.214C43.7072 29.3653 48.1193 33.5786 53.0766 33.5786C58.5767 33.5786 63.4144 29.2905 63.4144 23.5153C63.4144 17.8124 58.9617 13.4496 53.7844 13.4496V13.4472ZM53.7557 28.876C52.7152 28.876 51.698 28.565 50.8329 27.9823C49.9677 27.3996 49.2934 26.5714 48.8952 25.6025C48.497 24.6335 48.3928 23.5673 48.5958 22.5386C48.7988 21.51 49.2999 20.5651 50.0356 19.8235C50.7714 19.0819 51.7088 18.5769 52.7294 18.3722C53.7499 18.1676 54.8077 18.2727 55.769 18.674C56.7303 19.0754 57.552 19.755 58.1301 20.6271C58.7082 21.4991 59.0167 22.5244 59.0167 23.5732C59.0167 24.9795 58.4624 26.3283 57.4758 27.3228C56.4892 28.3173 55.151 28.876 53.7557 28.876Z" fill="#33475B"/>
<path d="M104.132 23.2696C104.132 17.4848 99.3038 13.2064 93.7941 13.2064C88.8368 13.2064 84.4248 17.4197 84.4248 23.5709V40.012H89.0616V31.1346C90.6064 32.6628 92.2086 33.3353 94.4996 33.3353C99.6769 33.3353 104.13 28.975 104.13 23.2696H104.132ZM99.7414 23.2118C99.7414 24.2606 99.4329 25.2858 98.8548 26.1579C98.2767 27.0299 97.4551 27.7096 96.4937 28.1109C95.5324 28.5123 94.4746 28.6173 93.4541 28.4127C92.4335 28.2081 91.4961 27.703 90.7604 26.9614C90.0246 26.2198 89.5235 25.2749 89.3205 24.2463C89.1175 23.2177 89.2217 22.1514 89.6199 21.1825C90.0181 20.2135 90.6924 19.3853 91.5576 18.8027C92.4228 18.22 93.4399 17.909 94.4804 17.909C95.8757 17.909 97.2139 18.4677 98.2005 19.4621C99.1872 20.4566 99.7414 21.8054 99.7414 23.2118Z" fill="#33475B"/>
<path d="M119.112 12.9798V8.28442C119.727 7.99449 120.249 7.53427 120.615 6.95734C120.981 6.38041 121.177 5.7105 121.18 5.02561V4.91714C121.18 3.95824 120.802 3.03861 120.13 2.36056C119.457 1.68252 118.545 1.3016 117.593 1.3016H117.486C116.534 1.3016 115.622 1.68252 114.949 2.36056C114.276 3.03861 113.899 3.95824 113.899 4.91714V5.02561C113.902 5.7105 114.098 6.38041 114.464 6.95734C114.83 7.53427 115.351 7.99449 115.967 8.28442V12.9798C114.198 13.2527 112.531 13.9919 111.137 15.1226L98.3619 5.0931C98.4523 4.76236 98.5005 4.42136 98.5054 4.07834C98.5068 3.27257 98.2711 2.48448 97.8281 1.81375C97.3851 1.14301 96.7547 0.619775 96.0166 0.31021C95.2786 0.000645553 94.466 -0.0813368 93.6817 0.0746328C92.8974 0.230602 92.1766 0.617517 91.6105 1.18644C91.0444 1.75536 90.6584 2.48072 90.5013 3.27079C90.3443 4.06085 90.4232 4.88012 90.7281 5.62496C91.0331 6.3698 91.5503 7.00676 92.2145 7.45526C92.8786 7.90376 93.6598 8.14367 94.4592 8.14462C95.1582 8.14147 95.8442 7.95365 96.4488 7.59988L109.03 17.4655C107.899 19.1864 107.309 21.2108 107.337 23.2745C107.365 25.3383 108.009 27.3458 109.185 29.0352L105.359 32.8918C105.05 32.7922 104.727 32.7394 104.402 32.7352C103.746 32.7356 103.105 32.9322 102.559 33.3C102.014 33.6678 101.589 34.1903 101.338 34.8016C101.087 35.4128 101.021 36.0853 101.15 36.734C101.278 37.3828 101.594 37.9787 102.058 38.4464C102.522 38.9142 103.113 39.2328 103.757 39.3619C104.4 39.4911 105.068 39.425 105.674 39.1721C106.28 38.9192 106.799 38.4908 107.164 37.941C107.529 37.3911 107.724 36.7446 107.724 36.0832C107.72 35.7558 107.668 35.4308 107.569 35.119L111.354 31.3034C112.589 32.2608 114.024 32.9208 115.55 33.2328C117.077 33.5448 118.654 33.5005 120.161 33.1032C121.668 32.706 123.064 31.9665 124.244 30.9412C125.424 29.9159 126.355 28.6322 126.966 27.1882C127.577 25.7443 127.853 24.1784 127.771 22.6107C127.689 21.0429 127.252 19.5148 126.494 18.1434C125.736 16.7719 124.677 15.5936 123.397 14.6986C122.118 13.8036 120.652 13.2156 119.112 12.9798ZM117.543 28.4206C116.508 28.4197 115.496 28.1093 114.635 27.5288C113.774 26.9483 113.104 26.1237 112.708 25.1592C112.312 24.1947 112.209 23.1336 112.412 22.11C112.614 21.0864 113.113 20.1463 113.845 19.4085C114.578 18.6706 115.511 18.1681 116.526 17.9646C117.542 17.761 118.595 17.8655 119.551 18.2648C120.508 18.6641 121.326 19.3403 121.901 20.208C122.477 21.0756 122.784 22.0958 122.785 23.1395C122.785 24.5395 122.233 25.8822 121.251 26.8721C120.269 27.862 118.937 28.4182 117.548 28.4182" fill="#FF7A59"/>
</g>
<defs>
<clipPath id="clip0">
<rect width="140" height="40" fill="white" transform="translate(0.5)"/>
</clipPath>
</defs>
</svg>
