<svg width="33" height="32" viewBox="0 0 33 32" fill="none" xmlns="http://www.w3.org/2000/svg">
<path d="M1.15753 31.9999H12.0068C17.1514 31.9999 21.3219 27.8294 21.3219 22.6848H10.4726C5.32803 22.6848 1.15753 26.8553 1.15753 31.9999Z" fill="#F22BB2"/>
<path d="M1.64288 9.31507V23.0137C6.78745 23.0137 10.958 18.8432 10.958 13.6986V0C5.81338 0 1.64288 4.1705 1.64288 9.31507Z" fill="#8C30F5"/>
<path d="M31.8425 0H20.9932C15.8486 0 11.6781 4.1705 11.6781 9.31507H22.5274C27.672 9.31507 31.8425 5.14457 31.8425 0Z" fill="#FE9A22"/>
<path d="M31.8425 22.1371V8.43848C26.6979 8.43848 22.5274 12.609 22.5274 17.7535V31.4522C27.672 31.4522 31.8425 27.2817 31.8425 22.1371Z" fill="#2EC5CE"/>
</svg>
